<?xml version="1.0" encoding="UTF-8"?><svg id="b" xmlns="http://www.w3.org/2000/svg" width="1447" height="516.37" viewBox="0 0 1447 516.37"><g id="c"><path d="m846.92,96.2h51.84c20.31,0,28.03-6.52,30.81-28.19,2.09-15.93,5.59-30.36,16.13-42.67,13.31-15.93,30.12-23.85,49.75-24.57,16.13-.72,29.21,0,46.02,0,26.62,0,43.43,12.31,51.11,38.33,23.11,80,65.3,247.58,74.11,282.7.97,3.85,4.42,6.54,8.39,6.54h0c3.91,0,7.33-2.61,8.35-6.38,9.34-34.47,54.35-199.8,79.34-278.56,4.91-15.89,11.9-30.36,27.31-36.88,7-2.9,14.72-4.34,22.4-5.07,15.4-.72,31.53-.72,46.93,0,36.44.72,64.43,27.47,66.56,64.35,2.82,47.01,4.91,94.71,7.72,141.72,4.22,70.86,7.72,141.72,11.9,212.58.72,13.03,1.41,26.74,1.41,39.77-.68,31.09-23.12,54.94-53.25,55.66-30.12.72-54.61-22.4-55.34-54.94-2.37-66.45-7.98-204.23-9.68-245.83-.28-6.8-5.87-12.15-12.67-12.15h0c-5.59,0-10.52,3.66-12.14,9.01-11.33,37.45-55.06,182.04-75.69,249.7-11.22,37.6-46.25,55.66-79.15,41.95-19.63-7.96-30.81-23.85-36.44-44.84-17.32-67.21-53.44-205.8-63.7-245.17-1.64-6.27-7.3-10.64-13.78-10.64h0c-7.59,0-13.85,5.95-14.23,13.53-1.33,26.39-4.21,84.51-5.25,111.42-2.09,44.84-4.22,90.37-6.31,135.21-1.41,29.64-23.81,52.08-51.84,53.53-27.31,1.45-50.43-19.55-51.11-47.74,0-7.24,0-13.75.68-20.95.68-19.5-5.59-26.02-24.53-26.74h-80.51c-6.31,0-12.59,0-18.22-1.45-22.4-5.07-38.53-25.3-39.21-49.91v-18.82c.68-28.92,21.03-49.87,49.02-51.32,10.5-.72,21.03,0,32.21,0,26.62-.72,46.25-18.82,48.34-43.39,2.09-26.74-14.72-47.74-42.03-51.32-11.9-1.45-23.81-1.45-35.03-.72-29.44,1.45-52.52-26.74-51.84-52.04.68-31.09,20.31-52.76,51.84-53.53,15.4-2.17,32.21-2.17,49.75-2.17" fill="#0087ff" stroke-width="0"/><path d="m346.75,0h290.68c7,0,13.31,0,19.63,1.45,23.12,6.52,36.44,27.47,33.62,53.49-2.09,22.4-19.63,39.77-43.43,40.5-29.44.72-58.15,0-87.55.72-7,0-14.72,0-21.72.72-21.72,2.17-37.12,16.65-40.62,39.77-1.41,10.13-1.41,20.95.72,31.09,3.5,18.82,18.9,33.26,37.12,34.71,11.9,1.45,24.53,0,37.12,1.45,9.13.72,18.22,1.45,25.9,4.34,19.63,7.96,30.12,28.92,26.62,50.63-3.5,21.68-21.03,38.33-42.71,39.77-12.63.72-24.53,0-37.12,0-28.03.72-45.52,15.93-48.34,44.12-1.41,11.58-1.41,23.12,0,34.71,3.5,27.47,21.03,43.39,47.62,43.39,34.3.72,68.65,0,102.27,0h13.31c23.12,2.9,40.62,23.12,40.62,47.01s-16.09,43.39-39.21,47.01c-4.91.72-9.81.72-15.4.72h-210.17c-4.91,0-9.81,0-15.4-.72-20.99-2.9-36.44-19.5-38.53-41.95-.68-5.79,0-11.58,0-17.33V146.87c0-7.96-.68-15.93-2.82-23.85-3.5-15.2-13.31-23.85-28.71-24.57-20.31-.72-40.62-1.45-60.24,0-25.9,1.45-44.12,22.4-44.84,49.14-.72,15.93,0,32.53,0,48.46v263.9c0,9.41-1.41,20.23-4.91,28.19-9.09,20.95-27.31,26.74-48.34,27.47-22.4,0-43.43-3.62-53.93-26.74-4.91-10.86-5.59-23.12-5.59-35.43-.68-85.3,0-169.91,0-255.25v-47.01c-.68-33.98-19.63-53.49-52.52-54.21-9.81,0-20.31-.72-30.12,0C21.03,99.86,0,74.56,0,48.5,0,20.31,24.53-.68,50.43.04,87.55,1.49,124.67.04,161.11.04h185.64v-.04Z" fill="#0087ff" stroke-width="0"/></g></svg>